<svg width="70" height="19" viewBox="0 0 70 19" fill="none" xmlns="http://www.w3.org/2000/svg">
<path d="M5.42718 4.94252C4.05773 4.94252 2.99639 5.59731 2.55131 6.41579L2.41437 5.1244H0.171875V18.2201H2.56843V13.382C3.03062 14.2187 4.12619 14.7825 5.42718 14.7825C7.99494 14.7825 9.63829 12.8727 9.63829 9.87161C9.63829 6.70681 7.85799 4.94252 5.42718 4.94252ZM4.89653 12.5089C3.59554 12.5089 2.61979 11.5268 2.61979 9.8898C2.61979 8.23464 3.59554 7.21609 4.89653 7.21609C6.21463 7.23427 7.17325 8.23464 7.17325 9.87161C7.17325 11.5268 6.21463 12.5089 4.89653 12.5089ZM19.3331 12.7272C19.0421 12.7272 18.8195 12.6545 18.8195 12.1816V8.65298C18.8195 5.87013 16.8167 4.94252 14.8823 4.94252C12.5543 4.94252 10.9109 6.2339 10.9109 8.36196H13.0849C13.1192 7.52529 13.7868 6.96145 14.7796 6.96145C15.7725 6.96145 16.4059 7.54348 16.4059 8.59841V9.01675H14.0264C11.7497 9.01675 10.6884 10.1626 10.6884 11.8542C10.6884 13.673 11.9551 14.7643 13.9237 14.7643C15.2418 14.7643 16.2689 14.2732 16.7654 13.4729C16.9537 14.2914 17.6041 14.5824 18.3916 14.5824H19.6926V12.7272H19.3331ZM16.4059 11.0175C16.4059 12.1452 15.7211 12.7636 14.54 12.7636C13.7525 12.7636 13.1534 12.4726 13.1534 11.6905C13.1534 11.1812 13.4273 10.6719 14.4544 10.6719H16.4059V11.0175ZM25.2729 5.1244C24.28 5.1244 23.6466 5.63368 23.3556 6.21572L23.0989 5.1244H20.8564V14.5824H23.27V9.7261C23.27 8.28921 23.7151 7.39797 25.1359 7.39797H26.4883V5.1244H25.2729ZM31.0034 14.5824H32.8179V12.3453H31.7737C30.9863 12.3453 30.7809 12.036 30.7809 11.2176V7.37978H32.8179V5.1244H30.7809V2.54163H28.3843V4.19679C28.3843 4.83339 28.2302 5.1244 27.6825 5.1244H27.0148V7.37978H28.3843V11.7814C28.3843 13.4911 29.2402 14.5824 31.0034 14.5824ZM34.0994 3.66932H36.5302V1.21387H34.0994V3.66932ZM34.1336 14.5824H36.5302V5.1244H34.1336V14.5824ZM44.2991 8.79849H46.8497C46.456 6.32485 44.7613 4.94252 42.5016 4.94252C39.797 4.94252 37.9824 6.90688 37.9824 9.85342C37.9824 12.8182 39.797 14.7825 42.4845 14.7825C44.727 14.7825 46.4217 13.3274 46.8497 10.872H44.2991C44.0081 11.9815 43.3747 12.5635 42.416 12.5635C41.2862 12.5635 40.4303 11.6905 40.4303 9.85342C40.4303 8.18008 41.2349 7.12514 42.4845 7.12514C43.3747 7.12514 44.0765 7.70718 44.2991 8.79849ZM50.4435 0.922852H48.0469V14.5824H50.4435V0.922852ZM60.7801 9.70792C60.7801 6.81594 59.0169 4.94252 56.3636 4.94252C53.7103 4.94252 51.93 6.90688 51.93 9.85342C51.93 12.8182 53.7103 14.7825 56.3807 14.7825C58.6232 14.7825 60.3179 13.4548 60.7117 11.4904H58.298C58.0241 12.3089 57.3222 12.7272 56.4492 12.7272C55.3023 12.7272 54.3779 11.9451 54.3437 10.5446H60.7801V9.70792ZM56.3636 6.92507C57.4078 6.92507 58.2809 7.56167 58.3836 8.87124H54.3608C54.4635 7.56167 55.3365 6.92507 56.3636 6.92507ZM61.6799 11.6177C61.697 13.5275 63.426 14.7643 65.7883 14.7643C67.8767 14.7643 69.6741 13.764 69.6741 11.7268C69.6741 10.3445 68.938 9.4169 67.2605 9.05313L65.5829 8.68936C64.7098 8.52566 64.2819 8.28921 64.2819 7.74355C64.2819 7.16152 64.7783 6.76137 65.6513 6.76137C66.5415 6.76137 67.192 7.21609 67.2091 8.01638H69.5543C69.5543 6.12477 67.9109 4.94252 65.6513 4.94252C63.58 4.94252 61.9024 6.0884 61.9024 7.85268C61.9024 9.12588 62.4673 10.1808 64.2476 10.5264L65.9595 10.872C66.9181 11.0539 67.2262 11.3813 67.2262 11.9633C67.2262 12.5999 66.6955 12.9455 65.754 12.9455C64.7954 12.9455 64.0422 12.4726 64.0251 11.6177H61.6799Z" fill="black"/>
</svg>
