<svg width="123" height="21" viewBox="0 0 123 21" fill="none" xmlns="http://www.w3.org/2000/svg">
<path d="M95.0775 12.9321H92.945C92.7798 12.9279 92.623 12.8615 92.5063 12.7465C92.3893 12.6314 92.3219 12.4766 92.3178 12.314V11.8195C92.3219 11.6569 92.3893 11.5021 92.5063 11.387C92.623 11.272 92.7798 11.2055 92.945 11.2014H94.7681C94.9345 11.2014 95.0938 11.1362 95.2117 11.0203C95.3292 10.9044 95.3953 10.7472 95.3953 10.5832C95.3953 10.4193 95.3292 10.2621 95.2117 10.1462C95.0938 10.0303 94.9345 9.96511 94.7681 9.96511H92.9283C92.7631 9.96097 92.6063 9.89448 92.4896 9.77945C92.3725 9.66442 92.3052 9.50962 92.301 9.34701V8.85251C92.3052 8.6899 92.3725 8.53506 92.4896 8.42003C92.6063 8.305 92.7631 8.23855 92.9283 8.23437H95.019C95.1854 8.23437 95.3447 8.16927 95.4626 8.05332C95.5801 7.93741 95.6462 7.78018 95.6462 7.61627C95.6462 7.45232 95.5801 7.2951 95.4626 7.17919C95.3447 7.06324 95.1854 6.99813 95.019 6.99813H92.5101C92.4123 6.99617 92.3169 7.02811 92.2404 7.08837C92.1639 7.14858 92.1116 7.2333 92.092 7.3278L90.7539 13.5503V13.6739C90.7773 13.8183 90.8547 13.949 90.9709 14.0404C91.0868 14.1318 91.2331 14.1774 91.3811 14.1684H95.0608C95.2272 14.1684 95.3865 14.1033 95.5044 13.9873C95.6219 13.8714 95.688 13.7142 95.688 13.5503C95.688 13.3863 95.6219 13.2291 95.5044 13.1132C95.3865 12.9972 95.2272 12.9321 95.0608 12.9321H95.0775Z" fill="#FEFEFE"/>
<path d="M48.6633 7.03906H47.827C47.7041 7.04061 47.5837 7.07619 47.4804 7.1418C47.3767 7.20737 47.2943 7.30028 47.2416 7.40996L45.4018 11.778C45.4018 11.789 45.3972 11.7995 45.3897 11.8072C45.3817 11.8149 45.3713 11.8192 45.36 11.8192C45.3182 11.8192 45.3182 11.8192 45.3182 11.778L43.4784 7.40996C43.4336 7.29848 43.3617 7.19946 43.2693 7.12148C43.102 6.99788 42.893 7.16271 42.8511 7.36877L41.4713 13.6736C41.4604 13.745 41.475 13.8179 41.5131 13.8797C41.5633 13.9793 41.6406 14.063 41.7368 14.1213C41.833 14.1796 41.9438 14.2101 42.0567 14.2093H42.3076C42.4698 14.2011 42.6224 14.1328 42.7357 14.0182C42.8491 13.9036 42.9139 13.7511 42.918 13.5912V9.55277C42.918 9.54186 42.9226 9.53136 42.9302 9.52367C42.9381 9.51593 42.9486 9.51158 42.9599 9.51158C42.9711 9.51158 42.9816 9.51593 42.9895 9.52367C42.9971 9.53136 43.0017 9.54186 43.0017 9.55277L44.7161 13.7973C44.7616 13.9119 44.8428 14.0095 44.9477 14.0761C45.0531 14.1426 45.1768 14.1749 45.3015 14.1681H45.4687C45.5916 14.1666 45.7121 14.131 45.8154 14.0654C45.9191 13.9998 46.0014 13.9069 46.0541 13.7973L47.7685 9.594C47.7685 9.58309 47.7731 9.57259 47.7806 9.56485C47.7886 9.55712 47.799 9.55277 47.8103 9.55277C47.8216 9.55277 47.8321 9.55712 47.84 9.56485C47.8475 9.57259 47.8521 9.58309 47.8521 9.594V13.5912C47.8563 13.7538 47.9236 13.9086 48.0407 14.0237C48.1574 14.1387 48.3142 14.2052 48.4793 14.2093H48.7302C48.8954 14.2052 49.0522 14.1387 49.1689 14.0237C49.2859 13.9086 49.3533 13.7538 49.3574 13.5912V7.6572C49.3286 7.49241 49.245 7.34188 49.1191 7.22978C48.9928 7.11772 48.8327 7.05052 48.6633 7.03906Z" fill="#FEFEFE"/>
<path d="M67.8146 10.3766H65.9748C65.8196 10.3766 65.6708 10.4374 65.5608 10.5456C65.4508 10.6538 65.3894 10.8005 65.3894 10.9535C65.3894 11.1065 65.4508 11.2532 65.5608 11.3615C65.6708 11.4696 65.8196 11.5304 65.9748 11.5304H66.3093C66.6438 11.5304 66.9783 11.8189 66.811 12.1485C66.5602 12.6843 66.0584 12.9727 65.2639 12.9727C64.0931 12.9727 63.3823 12.1073 63.3823 10.6239C63.3823 9.14033 64.1349 8.27498 65.2639 8.27498C65.5257 8.26164 65.7866 8.31533 66.0212 8.43091C66.2557 8.54644 66.4556 8.71989 66.602 8.93431C66.6672 9.05444 66.7634 9.15567 66.8809 9.22797C66.9984 9.30023 67.1326 9.34108 67.271 9.34639H67.6473C67.7318 9.35316 67.8171 9.33953 67.8949 9.30667C67.9731 9.2738 68.0416 9.2227 68.0952 9.15781C68.1487 9.09287 68.1855 9.0161 68.2022 8.93406C68.2189 8.85206 68.2147 8.76726 68.1909 8.68706C67.93 8.14678 67.5131 7.69439 66.9925 7.38651C66.4715 7.07868 65.8706 6.92902 65.2639 6.95628C63.3405 6.95628 61.877 8.31617 61.877 10.6239C61.877 12.9315 63.2568 14.2914 65.3057 14.2914C67.1456 14.2914 68.4418 13.1375 68.4418 11.2832V10.9947C68.4435 10.9131 68.4284 10.8319 68.3975 10.7562C68.3665 10.6804 68.3205 10.6116 68.262 10.5539C68.2035 10.4962 68.1336 10.4507 68.0567 10.4202C67.9798 10.3897 67.8974 10.3749 67.8146 10.3766Z" fill="#FEFEFE"/>
<path d="M56.9427 7.45118C56.8997 7.3316 56.8206 7.2279 56.7161 7.15418C56.6111 7.08046 56.4861 7.04028 56.3573 7.03906H55.2702C55.1414 7.04028 55.0164 7.08046 54.9114 7.15418C54.8069 7.2279 54.7278 7.3316 54.6848 7.45118L52.5941 13.3852C52.5627 13.4779 52.5539 13.5766 52.5681 13.6734C52.5823 13.7702 52.6196 13.8623 52.6764 13.9424C52.7333 14.0225 52.8086 14.0884 52.896 14.1347C52.9829 14.1811 53.0803 14.2066 53.1794 14.2093H53.514C53.6428 14.2081 53.7678 14.1679 53.8727 14.0942C53.9773 14.0205 54.0563 13.9168 54.0994 13.7973L54.3502 13.0143C54.3933 12.8947 54.4724 12.791 54.5769 12.7173C54.6818 12.6436 54.8069 12.6034 54.9357 12.6022H56.65C56.7788 12.6034 56.9038 12.6436 57.0088 12.7173C57.1133 12.791 57.1924 12.8947 57.2354 13.0143L57.4863 13.7973C57.5294 13.9168 57.6084 14.0205 57.713 14.0942C57.8179 14.1679 57.9429 14.2081 58.0717 14.2093H58.4062C58.5053 14.2066 58.6028 14.1811 58.6897 14.1347C58.7771 14.0884 58.8524 14.0225 58.9093 13.9424C58.9661 13.8623 59.0033 13.7702 59.0176 13.6734C59.0318 13.5766 59.023 13.4779 58.9916 13.3852L56.9427 7.45118ZM55.8807 11.366H55.7552C55.6561 11.3632 55.5587 11.3377 55.4713 11.2914C55.3843 11.245 55.3091 11.1791 55.2522 11.099C55.1953 11.0189 55.1581 10.9268 55.1439 10.83C55.1297 10.7333 55.1385 10.6345 55.1698 10.5418L55.797 8.64619C55.797 8.63528 55.8016 8.62479 55.8091 8.61705C55.8171 8.60936 55.8275 8.60501 55.8388 8.60501C55.8501 8.60501 55.8606 8.60936 55.8685 8.61705C55.8761 8.62479 55.8807 8.63528 55.8807 8.64619L56.5079 10.5418C56.5304 10.6374 56.5317 10.7368 56.5112 10.833C56.4911 10.9291 56.4493 11.0197 56.3895 11.0982C56.3297 11.1768 56.2532 11.2415 56.1654 11.2878C56.0772 11.334 55.9802 11.3607 55.8807 11.366Z" fill="#FEFEFE"/>
<path d="M72.665 7.03906H72.3723C72.2072 7.04324 72.0504 7.10973 71.9337 7.22476C71.8166 7.33979 71.7493 7.49459 71.7451 7.6572V13.5912C71.7493 13.7538 71.8166 13.9086 71.9337 14.0237C72.0504 14.1387 72.2072 14.2052 72.3723 14.2093H72.665C72.8302 14.2052 72.987 14.1387 73.1037 14.0237C73.2207 13.9086 73.2881 13.7538 73.2922 13.5912V7.6572C73.2814 7.49676 73.212 7.34564 73.0966 7.23195C72.9811 7.11826 72.8277 7.04973 72.665 7.03906Z" fill="#FEFEFE"/>
<path d="M79.9825 8.27492C80.2643 8.26727 80.5432 8.33158 80.7924 8.46154C81.0412 8.5915 81.2524 8.78276 81.4042 9.01667C81.4581 9.16017 81.5551 9.28419 81.6818 9.37246C81.8089 9.46069 81.9599 9.50907 82.115 9.51116H82.4077C82.4922 9.51794 82.5775 9.5043 82.6552 9.47144C82.7334 9.43857 82.802 9.38748 82.8555 9.32258C82.9091 9.25764 82.9459 9.18087 82.9626 9.09883C82.9793 9.01683 82.9755 8.93203 82.9513 8.85183C82.5332 7.6156 81.4042 6.91504 79.9407 6.91504C78.0172 6.91504 76.5537 8.23369 76.5537 10.5826C76.5537 12.9314 77.9754 14.2501 79.9407 14.2501C81.4878 14.2501 82.5332 13.4259 82.9095 12.3957C82.9337 12.3155 82.9375 12.2307 82.9208 12.1487C82.904 12.0667 82.8672 11.9899 82.8137 11.925C82.7602 11.8601 82.6916 11.809 82.6134 11.7761C82.5357 11.7433 82.4504 11.7296 82.3659 11.7364H82.0314C81.8792 11.7496 81.7332 11.8024 81.6082 11.8892C81.4836 11.9761 81.3841 12.094 81.3205 12.2309C81.1813 12.4669 80.9789 12.6607 80.7356 12.7915C80.4922 12.9222 80.2175 12.9849 79.9407 12.9726C78.8535 12.9726 78.1008 12.1485 78.1008 10.6238C78.1008 9.09908 78.8535 8.27492 79.9825 8.27492Z" fill="#FEFEFE"/>
<path d="M101.642 7.03906H99.677C99.5119 7.04324 99.355 7.10973 99.2384 7.22476C99.1213 7.33979 99.054 7.49459 99.0498 7.6572V13.5912C99.054 13.7538 99.1213 13.9086 99.2384 14.0237C99.355 14.1387 99.5119 14.2052 99.677 14.2093H101.642C103.858 14.2093 105.196 12.8495 105.196 10.6242C105.196 8.39895 103.817 7.03906 101.642 7.03906ZM101.559 12.8907H101.224C101.059 12.8865 100.902 12.82 100.786 12.705C100.668 12.59 100.601 12.4352 100.597 12.2725V8.93467C100.601 8.77206 100.668 8.61722 100.786 8.50219C100.902 8.38715 101.059 8.32071 101.224 8.31653H101.559C102.939 8.31653 103.649 9.01709 103.649 10.583C103.649 12.1489 102.939 12.8907 101.559 12.8907Z" fill="#FEFEFE"/>
<path d="M112.723 12.932H110.59C110.425 12.9279 110.268 12.8614 110.152 12.7464C110.035 12.6314 109.967 12.4766 109.963 12.3139V11.8194C109.967 11.6568 110.035 11.502 110.152 11.387C110.268 11.2719 110.425 11.2054 110.59 11.2013H112.43C112.597 11.2013 112.756 11.1362 112.874 11.0202C112.991 10.9043 113.057 10.7471 113.057 10.5832C113.057 10.4192 112.991 10.262 112.874 10.1461C112.756 10.0302 112.597 9.96502 112.43 9.96502H110.59C110.425 9.96088 110.268 9.8944 110.152 9.77937C110.035 9.66433 109.967 9.50954 109.963 9.34692V8.85243C109.967 8.68981 110.035 8.53497 110.152 8.41994C110.268 8.30491 110.425 8.23847 110.59 8.23429H112.681C112.847 8.23429 113.007 8.16918 113.125 8.05323C113.242 7.93732 113.308 7.7801 113.308 7.61619C113.308 7.45223 113.242 7.29501 113.125 7.1791C113.007 7.06315 112.847 6.99805 112.681 6.99805H109.043C108.878 7.00223 108.721 7.06867 108.605 7.1837C108.488 7.29873 108.42 7.45353 108.416 7.61619V13.5502C108.42 13.7128 108.488 13.8676 108.605 13.9826C108.721 14.0977 108.878 14.1641 109.043 14.1683H112.723C112.888 14.1641 113.045 14.0977 113.162 13.9826C113.279 13.8676 113.346 13.7128 113.35 13.5502C113.352 13.4685 113.337 13.3874 113.306 13.3116C113.275 13.2359 113.229 13.1671 113.17 13.1093C113.112 13.0516 113.042 13.0061 112.965 12.9756C112.888 12.9452 112.806 12.9304 112.723 12.932Z" fill="#FEFEFE"/>
<path d="M122.173 7.03906H121.881C121.715 7.04324 121.559 7.10973 121.442 7.22476C121.325 7.33979 121.258 7.49459 121.253 7.6572V11.4896C121.253 11.5308 121.253 11.5308 121.212 11.5308H121.17L118.243 7.32754C118.186 7.24901 118.111 7.18541 118.023 7.14234C117.936 7.09923 117.839 7.07791 117.741 7.08029H117.348C117.183 7.08447 117.026 7.15092 116.909 7.26595C116.792 7.38098 116.725 7.53577 116.721 7.69843V13.6324C116.725 13.795 116.792 13.9498 116.909 14.0649C117.026 14.1799 117.183 14.2463 117.348 14.2505H117.641C117.806 14.2463 117.963 14.1799 118.079 14.0649C118.196 13.9498 118.264 13.795 118.268 13.6324V9.75883C118.268 9.74792 118.272 9.73742 118.28 9.72969C118.288 9.72195 118.298 9.7176 118.31 9.7176H118.351L121.32 13.9209C121.377 13.9994 121.452 14.063 121.54 14.1061C121.627 14.1492 121.724 14.1705 121.822 14.1681H122.198C122.364 14.1639 122.52 14.0975 122.637 13.9825C122.754 13.8674 122.821 13.7126 122.826 13.55V7.61602C122.797 7.46214 122.718 7.32194 122.6 7.21748C122.481 7.11303 122.332 7.05027 122.173 7.03906Z" fill="#FEFEFE"/>
<path d="M23.4202 5.73195L25.3562 8.00665C25.5778 8.26213 25.7743 8.47229 25.8538 8.5918C26.4328 9.1672 26.7574 9.94487 26.757 10.7552C26.7026 11.7113 26.0796 12.3624 25.5025 13.0588L24.1477 14.6494L23.4411 15.4736C23.4157 15.502 23.3994 15.5371 23.394 15.5746C23.3887 15.6121 23.3947 15.6503 23.4111 15.6845C23.4276 15.7187 23.4538 15.7474 23.4867 15.767C23.5195 15.7866 23.5574 15.7964 23.5958 15.795H30.6582C31.737 15.795 33.096 16.7016 33.0166 18.078C33.0143 18.7035 32.7612 19.3029 32.3124 19.7452C31.8635 20.1875 31.2554 20.437 30.6206 20.4392H19.5607C18.8332 20.4392 16.8762 20.5175 16.3285 18.8485C16.212 18.4998 16.1961 18.126 16.2825 17.7689C16.4417 17.2408 16.6936 16.7442 17.0268 16.3019C17.5829 15.4777 18.185 14.6535 18.7788 13.8541C19.544 12.8074 20.3301 11.7937 21.1037 10.7264C21.1311 10.6916 21.1461 10.6489 21.1461 10.6048C21.1461 10.5608 21.1311 10.518 21.1037 10.4833L18.2937 7.18659C18.2754 7.16271 18.2517 7.14331 18.2245 7.12997C18.1973 7.11663 18.1673 7.10969 18.1369 7.10969C18.1065 7.10969 18.0766 7.11663 18.0494 7.12997C18.0222 7.14331 17.9985 7.16271 17.9801 7.18659C17.2275 8.18796 13.9325 12.622 13.23 13.5203C12.5276 14.4187 10.7964 14.4681 9.8389 13.5203L5.44422 9.17285C5.41616 9.14508 5.38033 9.12614 5.34136 9.11849C5.30234 9.1108 5.26191 9.11473 5.2252 9.12974C5.18844 9.14475 5.15704 9.17017 5.135 9.20279C5.11297 9.2354 5.10126 9.27375 5.10134 9.31293V17.6741C5.11167 18.2675 4.93342 18.8491 4.59146 19.3376C4.24954 19.826 3.76111 20.1968 3.19461 20.398C2.83262 20.5221 2.4458 20.5592 2.06629 20.5061C1.68683 20.453 1.32576 20.3113 1.01316 20.0927C0.700557 19.8742 0.445489 19.5851 0.269242 19.2497C0.0930367 18.9143 0.000710843 18.5422 0 18.1645V3.13169C0.025214 2.58994 0.222996 2.06982 0.565287 1.64519C0.907579 1.22057 1.37694 0.913065 1.90673 0.766339C2.36117 0.647034 2.83952 0.64823 3.29333 0.76981C3.74715 0.891364 4.16027 1.12904 4.49085 1.45866L11.248 8.12615C11.2683 8.14639 11.2927 8.16203 11.3198 8.1719C11.3468 8.18177 11.3757 8.1857 11.4045 8.18331C11.4332 8.18097 11.461 8.1724 11.486 8.15827C11.5111 8.14409 11.5325 8.12469 11.5491 8.1014L16.3494 1.55341C16.5712 1.2876 16.8493 1.0728 17.1643 0.924021C17.4792 0.775245 17.8233 0.696133 18.1725 0.692161H30.6582C30.9999 0.692746 31.3376 0.765168 31.6486 0.904661C31.9596 1.04419 32.2368 1.24754 32.4616 1.5011C32.6864 1.75466 32.8537 2.05263 32.9523 2.37506C33.0509 2.69749 33.0785 3.03694 33.0333 3.3707C32.9453 3.9497 32.6472 4.47765 32.1943 4.85653C31.7414 5.23541 31.1644 5.43959 30.5704 5.43114H23.5791C23.5439 5.43198 23.5097 5.4421 23.4798 5.46041C23.45 5.47873 23.4257 5.50461 23.4095 5.5353C23.3933 5.56603 23.3857 5.60049 23.3876 5.63507C23.3895 5.66965 23.4007 5.7031 23.4202 5.73195Z" fill="#FEFEFE"/>
</svg>
