<svg width="109" height="120" viewBox="0 0 109 120" fill="none" xmlns="http://www.w3.org/2000/svg">
<path fill-rule="evenodd" clip-rule="evenodd" d="M41.3525 0.677602C41.8719 -0.225865 43.1736 -0.225868 43.693 0.677599L54.5511 19.5651L65.4092 0.677602C65.9283 -0.225865 67.23 -0.225868 67.7494 0.677599L108.818 72.1162C109.336 73.0178 108.686 74.1433 107.647 74.1433H85.803L96.7901 93.2553C97.3084 94.1569 96.6585 95.2824 95.62 95.2824H13.4833C12.4445 95.2824 11.7947 94.1569 12.313 93.2553L23.3 74.1433H1.4546C0.415838 74.1433 -0.233921 73.0178 0.284393 72.1162L41.3525 0.677602ZM54.4403 119.774C54.2671 120.075 53.8334 120.075 53.6602 119.774L43.5877 102.253C43.415 101.952 43.6319 101.577 43.9778 101.577H64.1227C64.469 101.577 64.6855 101.952 64.5128 102.253L54.4403 119.774ZM0.449777 22.673C0.103879 22.673 -0.11204 23.0486 0.060909 23.3494L10.1334 40.8705C10.3065 41.1716 10.7393 41.172 10.9123 40.8712L20.9847 23.3501C21.1577 23.0493 20.9409 22.673 20.5946 22.673H0.449777ZM107.801 22.6302C108.147 22.6302 108.363 23.0058 108.19 23.3066L98.1177 40.8278C97.9446 41.1289 97.5116 41.1293 97.3388 40.8285L87.2663 23.3073C87.0932 23.0065 87.3101 22.6302 87.6563 22.6302H107.801ZM55.7212 32.8918C55.2018 31.9883 53.9001 31.9883 53.3807 32.8918L37.4867 60.5395C36.9683 61.4411 37.618 62.5669 38.6568 62.5669H70.4447C71.4836 62.5669 72.1335 61.4411 71.6152 60.5395L55.7212 32.8918Z" fill="#CED4DA"/>
</svg>
