<svg width="38" height="30" viewBox="0 0 38 30" fill="none" xmlns="http://www.w3.org/2000/svg">
<path d="M31.87 2.4391C29.4346 1.29964 26.8306 0.471533 24.1082 0C23.7738 0.604489 23.3832 1.41754 23.1139 2.06432C20.2199 1.62909 17.3524 1.62909 14.5116 2.06432C14.2424 1.41754 13.8429 0.604489 13.5056 0C10.7802 0.471533 8.17315 1.30269 5.73777 2.44513C0.825572 9.8681 -0.506043 17.1067 0.159766 24.2425C3.41779 26.6755 6.57521 28.1535 9.67935 29.1207C10.4458 28.0658 11.1293 26.9445 11.7182 25.7628C10.5967 25.3366 9.52251 24.8107 8.50755 24.2002C8.77682 24.0007 9.0402 23.7922 9.29466 23.5776C15.4852 26.4731 22.2114 26.4731 28.3279 23.5776C28.5854 23.7922 28.8487 24.0007 29.115 24.2002C28.0971 24.8137 27.02 25.3396 25.8985 25.7658C26.4873 26.9445 27.1679 28.0689 27.9373 29.1237C31.0444 28.1565 34.2048 26.6786 37.4628 24.2425C38.244 15.9703 36.1283 8.79817 31.87 2.4391ZM12.5616 19.8541C10.7032 19.8541 9.17924 18.1192 9.17924 16.0065C9.17924 13.8939 10.6707 12.156 12.5616 12.156C14.4525 12.156 15.9764 13.8909 15.9439 16.0065C15.9468 18.1192 14.4525 19.8541 12.5616 19.8541ZM25.061 19.8541C23.2027 19.8541 21.6787 18.1192 21.6787 16.0065C21.6787 13.8939 23.1701 12.156 25.061 12.156C26.9519 12.156 28.4759 13.8909 28.4433 16.0065C28.4433 18.1192 26.9519 19.8541 25.061 19.8541Z" fill="white"/>
</svg>
