<svg width="80" height="48" viewBox="0 0 80 48" fill="none" xmlns="http://www.w3.org/2000/svg">
<path d="M56.01 12.0873L60.64 17.5273C61.17 18.1383 61.64 18.6409 61.83 18.9267C63.2147 20.3028 63.9911 22.1626 63.99 24.1006C63.86 26.387 62.37 27.9441 60.99 29.6096L57.75 33.4137L56.06 35.3847C55.9994 35.4526 55.9603 35.5366 55.9475 35.6263C55.9348 35.7159 55.949 35.8072 55.9884 35.889C56.0277 35.9708 56.0905 36.0394 56.169 36.0864C56.2475 36.1333 56.3382 36.1566 56.43 36.1534H73.32C75.9 36.1534 79.15 38.3215 78.96 41.6131C78.9547 43.1091 78.3493 44.5425 77.2759 45.6003C76.2025 46.6582 74.7481 47.2548 73.23 47.26H46.78C45.04 47.26 40.36 47.4473 39.05 43.456C38.7714 42.6219 38.7333 41.7281 38.94 40.8739C39.3208 39.611 39.9232 38.4235 40.72 37.3655C42.05 35.3945 43.49 33.4235 44.91 31.5116C46.74 29.0084 48.62 26.5841 50.47 24.0316C50.5357 23.9485 50.5714 23.8462 50.5714 23.7409C50.5714 23.6356 50.5357 23.5333 50.47 23.4502L43.75 15.5661C43.7062 15.509 43.6495 15.4626 43.5844 15.4307C43.5194 15.3988 43.4477 15.3822 43.375 15.3822C43.3023 15.3822 43.2306 15.3988 43.1656 15.4307C43.1005 15.4626 43.0438 15.509 43 15.5661C41.2 17.9609 33.32 28.565 31.64 30.7134C29.96 32.8618 25.82 32.98 23.53 30.7134L13.02 20.3163C12.9529 20.2499 12.8672 20.2046 12.774 20.1863C12.6807 20.1679 12.584 20.1773 12.4962 20.2132C12.4083 20.2491 12.3332 20.3099 12.2805 20.3879C12.2278 20.4659 12.1998 20.5576 12.2 20.6513V40.6473C12.2247 42.0663 11.7984 43.4573 10.9806 44.6255C10.1629 45.7936 8.9948 46.6804 7.64 47.1615C6.7743 47.4584 5.8492 47.5471 4.9416 47.4201C4.0341 47.2931 3.1706 46.9541 2.423 46.4314C1.6754 45.9088 1.0654 45.2175 0.6439 44.4154C0.2225 43.6132 0.0017 42.7234 0 41.82V5.8687C0.0603 4.5731 0.5333 3.3292 1.3519 2.3137C2.1705 1.2982 3.293 0.5628 4.56 0.2119C5.6468 -0.0734196 6.7908 -0.0705598 7.8761 0.2202C8.9614 0.5109 9.9494 1.0793 10.74 1.8676L26.9 17.8131C26.9484 17.8615 27.0069 17.8989 27.0716 17.9225C27.1362 17.9461 27.2054 17.9555 27.2741 17.9498C27.3428 17.9442 27.4094 17.9237 27.4692 17.8899C27.529 17.856 27.5804 17.8096 27.62 17.7539L39.1 2.0942C39.6305 1.4585 40.2956 0.9448 41.0488 0.589C41.8019 0.2332 42.6249 0.0440007 43.46 0.0345007H73.32C74.1372 0.0359007 74.9447 0.2091 75.6884 0.5427C76.4322 0.8764 77.0951 1.3627 77.6328 1.9691C78.1705 2.5755 78.5706 3.2881 78.8064 4.0592C79.0422 4.8303 79.1082 5.6421 79 6.4403C78.7896 7.825 78.0767 9.0876 76.9936 9.9937C75.9104 10.8998 74.5306 11.3881 73.11 11.3679H56.39C56.306 11.3699 56.2241 11.3941 56.1527 11.4379C56.0814 11.4817 56.0233 11.5436 55.9845 11.617C55.9457 11.6905 55.9276 11.7729 55.9321 11.8556C55.9366 11.9383 55.9635 12.0183 56.01 12.0873Z" fill="white"/>
</svg>
