<svg width="65" height="70" viewBox="0 0 65 70" fill="none" xmlns="http://www.w3.org/2000/svg">
<path fill-rule="evenodd" clip-rule="evenodd" d="M23.4783 0.929674C24.192 -0.309891 25.9807 -0.309892 26.6944 0.929674L32.2547 10.5869L37.815 0.929674C38.5287 -0.309891 40.3174 -0.309892 41.0311 0.929674L63.6883 40.2809C64.4005 41.5179 63.5076 43.0623 62.0802 43.0623H50.8794L56.52 52.859C57.2323 54.096 56.3394 55.6404 54.912 55.6404H9.59766C8.17025 55.6404 7.27739 54.096 7.98963 52.859L13.6303 43.0623H2.42921C1.0018 43.0623 0.108933 41.5179 0.821169 40.2809L23.4783 0.929674ZM32.4922 69.6863C32.2543 70.0995 31.6581 70.0995 31.4202 69.6863L26.0233 60.313C25.7859 59.9007 26.0835 59.3859 26.5593 59.3859H37.353C37.8288 59.3859 38.1264 59.9007 37.889 60.313L32.4922 69.6863ZM0.618057 12.4346C0.142745 12.4346 -0.153959 12.9499 0.0836975 13.3627L5.48054 22.736C5.71844 23.1492 6.31325 23.1497 6.55091 22.7369L11.9477 13.3637C12.1854 12.9509 11.8875 12.4346 11.4117 12.4346L0.618057 12.4346ZM63.3842 12.4093C63.8595 12.4093 64.1562 12.9247 63.9185 13.3374L58.5217 22.7107C58.2838 23.1239 57.689 23.1244 57.4513 22.7117L52.0545 13.3384C51.8168 12.9256 52.1147 12.4093 52.5905 12.4093L63.3842 12.4093ZM33.8625 20.0976C33.1488 18.8581 31.3602 18.8581 30.6465 20.0976L22.9919 33.3921C22.2797 34.6291 23.1726 36.1735 24.6 36.1735H39.909C41.3364 36.1735 42.2293 34.6291 41.5171 33.3921L33.8625 20.0976Z" fill="white"/>
</svg>
