<svg width="822" height="900" viewBox="0 0 822 900" fill="none" xmlns="http://www.w3.org/2000/svg">
<path fill-rule="evenodd" clip-rule="evenodd" d="M332.116 95.0593C335.233 89.6469 343.043 89.6469 346.159 95.0593L411.307 208.209L476.455 95.0593C479.571 89.6469 487.381 89.6469 490.497 95.0593L736.907 523.027C740.017 528.428 736.119 535.171 729.886 535.171H598.819L664.741 649.664C667.851 655.065 663.952 661.808 657.719 661.808H164.9C158.667 661.808 154.768 655.065 157.878 649.664L223.8 535.171H92.7279C86.4953 535.171 82.5967 528.428 85.7066 523.027L332.116 95.0593ZM410.643 808.53C409.604 810.334 407.001 810.334 405.962 808.53L345.527 703.566C344.491 701.766 345.79 699.518 347.868 699.518H468.737C470.815 699.518 472.114 701.766 471.078 703.566L410.643 808.53ZM86.6987 226.826C84.6233 226.826 83.3278 229.076 84.3655 230.879L144.8 335.842C145.839 337.646 148.436 337.649 149.474 335.846L209.908 230.883C210.946 229.081 209.646 226.826 207.568 226.826L86.6987 226.826ZM730.808 226.57C732.883 226.57 734.178 228.82 733.141 230.622L672.706 335.586C671.667 337.39 669.07 337.392 668.032 335.59L607.598 230.626C606.56 228.824 607.861 226.57 609.938 226.57L730.808 226.57ZM418.327 288.044C415.211 282.632 407.401 282.632 404.284 288.044L308.92 453.674C305.81 459.075 309.709 465.818 315.941 465.818H506.67C512.902 465.818 516.801 459.075 513.691 453.673L418.327 288.044Z" fill="black"/>
</svg>
