<svg width="244" height="266" viewBox="0 0 244 266" fill="none" xmlns="http://www.w3.org/2000/svg">
<path fill-rule="evenodd" clip-rule="evenodd" d="M89.464 3.53522C92.1854 -1.17841 98.9889 -1.1784 101.71 3.53523L122.902 40.2407L144.094 3.53522C146.816 -1.17841 153.619 -1.1784 156.341 3.53523L242.658 153.042C245.38 157.756 241.978 163.648 236.535 163.648H193.869L215.343 200.843C218.065 205.557 214.663 211.449 209.22 211.449H36.5848C31.142 211.449 27.7402 205.557 30.4616 200.843L51.9364 163.648H9.26941C3.82658 163.648 0.424817 157.756 3.14623 153.042L89.464 3.53522ZM123.805 264.82C122.898 266.391 120.63 266.391 119.723 264.82L99.1639 229.211C98.2568 227.64 99.3907 225.676 101.205 225.676H142.323C144.137 225.676 145.271 227.64 144.364 229.211L123.805 264.82ZM2.36033 47.2597C0.546057 47.2597 -0.58787 49.2237 0.319269 50.7949L20.8782 86.4039C21.7853 87.9752 24.0532 87.9752 24.9603 86.404L45.5192 50.7949C46.4263 49.2237 45.2924 47.2597 43.4782 47.2597L2.36033 47.2597ZM241.51 47.1625C243.324 47.1625 244.458 49.1266 243.551 50.6978L222.992 86.3068C222.085 87.8781 219.817 87.878 218.91 86.3068L198.351 50.6978C197.444 49.1265 198.578 47.1625 200.392 47.1625H241.51ZM129.024 76.3752C126.303 71.6616 119.499 71.6616 116.778 76.3752L87.6274 126.865C84.906 131.579 88.3078 137.471 93.7506 137.471H152.052C157.495 137.471 160.896 131.579 158.175 126.865L129.024 76.3752Z" fill="white"/>
</svg>
