<svg width="654" height="719" viewBox="0 0 654 719" fill="none" xmlns="http://www.w3.org/2000/svg">
<path fill-rule="evenodd" clip-rule="evenodd" d="M248.116 4.05929C251.233 -1.3531 259.043 -1.35309 262.159 4.0593L327.307 117.209L392.455 4.05929C395.571 -1.3531 403.381 -1.35309 406.497 4.0593L652.907 432.027C656.017 437.428 652.119 444.171 645.886 444.171H514.819L580.741 558.664C583.851 564.065 579.952 570.808 573.719 570.808H80.8996C74.667 570.808 70.7684 564.065 73.8783 558.664L139.8 444.171H8.72786C2.49527 444.171 -1.40331 437.428 1.70657 432.027L248.116 4.05929ZM326.643 717.53C325.604 719.334 323.001 719.334 321.962 717.53L261.527 612.566C260.491 610.766 261.79 608.518 263.868 608.518H384.737C386.815 608.518 388.114 610.766 387.078 612.566L326.643 717.53ZM2.69866 135.826C0.623276 135.826 -0.672239 138.076 0.365454 139.879L60.8001 244.842C61.8389 246.646 64.436 246.649 65.4737 244.846L125.908 139.883C126.946 138.081 125.646 135.826 123.568 135.826L2.69866 135.826ZM646.808 135.57C648.883 135.57 650.178 137.82 649.141 139.622L588.706 244.586C587.667 246.39 585.07 246.392 584.032 244.59L523.598 139.626C522.56 137.824 523.861 135.57 525.938 135.57L646.808 135.57ZM334.327 197.044C331.211 191.632 323.401 191.632 320.284 197.044L224.92 362.674C221.81 368.075 225.709 374.818 231.941 374.818H422.67C428.902 374.818 432.801 368.075 429.691 362.673L334.327 197.044Z" fill="black"/>
</svg>